<?xml version="1.0" standalone="no"?>
<!DOCTYPE svg PUBLIC "-//W3C//DTD SVG 20010904//EN"
 "http://www.w3.org/TR/2001/REC-SVG-20010904/DTD/svg10.dtd">
<svg version="1.0" xmlns="http://www.w3.org/2000/svg"
 width="4501.000000pt" height="4501.000000pt" viewBox="0 0 4501.000000 4501.000000"
 preserveAspectRatio="xMidYMid meet">

<g transform="translate(0.000000,4501.000000) scale(0.100000,-0.100000)"
fill="#000000" stroke="none">
<path d="M11635 27024 c-49 -35 -145 -139 -169 -183 -65 -120 -71 -261 -18
-406 15 -43 32 -80 38 -81 12 -4 68 67 117 148 52 87 78 175 84 289 5 89 -10
234 -26 243 -3 2 -15 -2 -26 -10z"/>
<path d="M17539 26978 c-30 -140 -10 -308 51 -432 32 -64 126 -196 140 -196
17 0 56 117 69 208 23 153 -31 295 -155 411 -42 39 -79 71 -84 71 -4 0 -13
-28 -21 -62z"/>
<path d="M12252 26980 c-138 -37 -246 -116 -321 -235 -44 -69 -77 -142 -68
-151 13 -13 168 -25 241 -20 190 16 352 117 470 295 66 99 66 96 -1 110 -109
23 -240 23 -321 1z"/>
<path d="M16725 26994 c-11 -3 -46 -9 -77 -16 -32 -6 -58 -15 -58 -21 0 -22
114 -179 162 -222 110 -98 229 -151 368 -161 64 -5 226 9 237 20 9 9 -57 135
-100 193 -99 133 -270 214 -447 212 -36 -1 -74 -3 -85 -5z"/>
<path d="M11086 26729 c-70 -75 -126 -176 -145 -259 -29 -128 -4 -282 66 -409
l36 -65 29 35 c40 47 124 223 137 287 21 104 24 213 8 307 -18 102 -39 167
-54 172 -6 2 -40 -29 -77 -68z"/>
<path d="M18042 26783 c-53 -106 -66 -368 -23 -503 12 -41 34 -97 48 -124 30
-59 93 -156 102 -156 4 0 21 27 39 59 127 231 101 473 -69 665 -63 70 -85 83
-97 59z"/>
<path d="M10546 26384 c-114 -143 -158 -257 -159 -414 -2 -153 35 -259 138
-399 l47 -64 24 39 c37 60 81 180 99 273 27 133 17 317 -24 441 -17 52 -42
115 -55 139 l-23 44 -47 -59z"/>
<path d="M18591 26379 c-94 -207 -111 -397 -56 -615 20 -78 81 -223 104 -247
10 -10 93 104 130 178 16 33 37 88 45 121 20 78 20 223 1 298 -25 95 -101 226
-186 320 -5 6 -21 -18 -38 -55z"/>
<path d="M11645 26389 c-51 -8 -134 -36 -148 -49 -14 -13 122 -118 198 -155
118 -56 243 -70 359 -40 109 29 110 29 34 101 -76 72 -180 127 -272 143 -67
12 -99 12 -171 0z"/>
<path d="M17384 26386 c-84 -19 -161 -59 -237 -122 -82 -68 -87 -81 -42 -100
105 -43 254 -44 367 -1 98 37 258 153 244 176 -11 17 -133 51 -205 56 -38 3
-92 -1 -127 -9z"/>
<path d="M11310 26081 c-68 -10 -173 -44 -218 -71 -42 -26 -37 -33 66 -97 105
-66 217 -104 323 -110 99 -6 159 5 268 50 l75 30 -50 44 c-132 118 -306 175
-464 154z"/>
<path d="M17740 26079 c-69 -11 -219 -85 -285 -139 -27 -23 -51 -45 -53 -49
-4 -11 104 -58 179 -77 164 -42 396 22 560 155 l23 19 -62 31 c-109 55 -251
79 -362 60z"/>
<path d="M10038 25847 c-84 -135 -120 -248 -119 -377 0 -113 18 -187 68 -282
33 -63 163 -218 183 -218 5 0 18 29 30 65 70 211 66 450 -11 637 -29 71 -102
202 -117 212 -4 2 -20 -14 -34 -37z"/>
<path d="M19114 25838 c-117 -185 -164 -373 -144 -573 11 -104 52 -271 72
-290 7 -7 32 14 79 64 156 168 213 377 159 580 -22 79 -106 251 -127 258 -7 3
-24 -15 -39 -39z"/>
<path d="M10835 25637 c-38 -13 -86 -32 -105 -42 -53 -28 -140 -87 -140 -95 0
-15 185 -99 265 -122 115 -32 272 -32 375 0 73 23 162 67 208 103 l22 17 -73
46 c-41 26 -112 61 -158 78 -73 27 -99 31 -204 35 -105 3 -129 0 -190 -20z"/>
<path d="M18055 25645 c-66 -17 -224 -92 -269 -128 l-29 -23 52 -33 c100 -65
248 -110 357 -111 67 0 203 26 268 51 73 29 196 92 196 100 0 14 -145 98 -215
125 -58 22 -89 28 -185 30 -79 2 -134 -1 -175 -11z"/>
<path d="M25306 25310 c-151 -19 -329 -71 -447 -130 -101 -52 -240 -151 -324
-234 -194 -190 -305 -397 -368 -685 -20 -94 -21 -120 -24 -1268 l-4 -1173 456
0 455 0 2 468 3 467 413 3 412 2 0 -470 0 -470 461 0 460 0 -4 1143 c-4 1248
-3 1226 -63 1435 -109 376 -427 712 -797 841 -185 65 -448 94 -631 71z m336
-937 c76 -36 154 -107 182 -168 43 -89 48 -132 53 -402 l5 -263 -417 0 -418 0
6 248 c3 136 11 269 17 296 31 150 134 262 285 313 25 8 75 12 130 10 77 -2
100 -7 157 -34z"/>
<path d="M31586 25310 c-151 -19 -329 -71 -447 -130 -101 -52 -240 -151 -324
-234 -194 -190 -305 -397 -368 -685 -20 -94 -21 -120 -24 -1268 l-4 -1173 456
0 455 0 2 468 3 467 413 3 412 2 0 -470 0 -470 461 0 460 0 -4 1143 c-4 1248
-3 1226 -63 1435 -109 376 -427 712 -797 841 -185 65 -448 94 -631 71z m336
-937 c76 -36 154 -107 182 -168 43 -89 48 -132 53 -402 l5 -263 -417 0 -418 0
6 248 c3 136 11 269 17 296 31 150 134 262 285 313 25 8 75 12 130 10 77 -2
100 -7 157 -34z"/>
<path d="M35060 25309 c-467 -53 -921 -316 -1219 -708 -176 -231 -291 -484
-348 -769 -28 -137 -25 -481 5 -621 106 -489 382 -889 802 -1163 435 -284 955
-369 1432 -233 99 28 299 111 373 154 l50 29 110 -109 110 -109 310 310 309
309 -105 106 -105 106 67 133 c69 138 126 301 156 446 14 67 18 133 18 310 0
196 -3 238 -23 330 -52 237 -144 453 -281 656 -387 577 -1028 895 -1661 823z
m397 -929 c270 -63 510 -273 608 -535 74 -196 73 -435 -2 -625 -144 -362 -520
-591 -901 -549 -214 23 -381 107 -538 271 -127 132 -199 274 -230 449 -86 494
276 963 781 1013 69 6 196 -5 282 -24z"/>
<path d="M9580 25188 c-81 -210 -81 -370 1 -537 32 -66 59 -101 123 -165 45
-44 96 -89 113 -99 l32 -17 13 57 c21 92 17 363 -5 438 -25 82 -64 169 -105
235 -39 63 -124 170 -134 170 -3 0 -21 -37 -38 -82z"/>
<path d="M19553 25223 c-95 -115 -160 -237 -193 -368 -31 -119 -28 -361 6
-468 5 -15 11 -13 51 15 142 97 253 268 274 422 13 95 0 210 -35 313 -22 65
-53 133 -60 133 -1 0 -21 -21 -43 -47z"/>
<path d="M21420 24795 l0 -455 360 0 360 0 0 -1260 0 -1260 460 0 460 0 0
1260 0 1260 360 0 360 0 0 455 0 455 -1180 0 -1180 0 0 -455z"/>
<path d="M27330 23536 l0 -1716 460 0 460 0 0 1296 0 1295 248 -3 c231 -3 250
-4 287 -25 89 -48 130 -117 130 -223 0 -111 -36 -170 -135 -221 -40 -21 -62
-24 -210 -29 l-165 -5 -3 -271 -2 -271 177 -6 c266 -9 323 -26 410 -120 155
-170 83 -451 -137 -534 -34 -13 -92 -18 -245 -22 l-200 -6 -3 -427 -2 -428
287 0 c159 0 322 5 363 10 311 41 583 190 753 413 152 198 219 407 218 677 -1
313 -95 544 -306 749 l-87 85 46 95 c80 171 106 281 106 451 0 241 -72 440
-223 620 -103 122 -271 235 -410 275 -161 46 -181 47 -1019 52 l-798 4 0
-1715z"/>
<path d="M10530 25164 c-90 -19 -191 -72 -279 -146 l-75 -62 45 -19 c24 -10
87 -30 139 -44 238 -63 482 -13 634 129 59 55 61 52 -59 99 -150 59 -273 72
-405 43z"/>
<path d="M18415 25164 c-71 -16 -198 -64 -230 -88 -16 -12 -13 -17 41 -61 199
-163 462 -192 747 -85 l59 22 -39 40 c-59 61 -177 135 -251 159 -90 28 -235
34 -327 13z"/>
<path d="M10225 24631 c-89 -27 -112 -37 -187 -87 -77 -51 -186 -174 -165
-185 42 -24 186 -41 306 -36 136 5 214 25 324 84 60 33 203 171 190 184 -5 5
-53 20 -107 34 -122 31 -269 33 -361 6z"/>
<path d="M18681 24639 c-56 -11 -143 -39 -155 -50 -5 -5 23 -40 65 -81 133
-132 282 -189 488 -187 122 1 261 25 268 46 3 7 -33 50 -79 96 -90 91 -178
143 -293 172 -64 16 -221 19 -294 4z"/>
<path d="M19877 24522 c-193 -195 -267 -373 -267 -644 0 -76 2 -138 5 -138 16
0 108 54 163 95 161 121 232 271 232 490 0 104 -25 244 -49 268 -4 4 -42 -28
-84 -71z"/>
<path d="M9228 24518 c-29 -96 -32 -283 -4 -372 31 -104 75 -177 150 -252 73
-73 208 -160 227 -148 17 10 5 294 -16 369 -21 75 -82 208 -126 272 -41 61
-178 203 -195 203 -8 0 -23 -31 -36 -72z"/>
<path d="M13588 24335 c-392 -48 -794 -210 -1112 -449 -105 -79 -279 -247
-374 -361 -267 -319 -463 -758 -541 -1215 -64 -373 -53 -829 29 -1225 211
-1022 878 -1971 1763 -2508 203 -124 597 -304 644 -295 28 5 28 60 0 121 -16
33 -69 99 -147 182 -402 429 -712 853 -927 1272 -76 146 -173 357 -173 372 0
3 38 -70 84 -164 239 -486 593 -962 1066 -1435 193 -193 333 -318 429 -383 96
-64 276 -150 371 -177 205 -57 435 -24 483 70 29 56 20 150 -22 236 -31 62
-68 103 -381 414 -454 452 -679 718 -935 1105 -128 193 -206 327 -293 500 -64
130 -145 315 -140 321 2 1 21 -36 42 -84 51 -116 171 -338 266 -492 281 -452
726 -959 1222 -1393 191 -167 231 -197 359 -262 269 -137 489 -169 592 -84 59
49 80 100 75 180 -10 130 -90 255 -263 408 -138 122 -403 385 -535 531 -439
485 -772 978 -974 1443 -31 70 -56 131 -56 134 0 3 47 -88 105 -203 267 -534
644 -1024 1194 -1548 313 -298 406 -371 518 -406 106 -33 186 -23 247 31 59
51 70 153 36 318 -10 51 -35 127 -54 168 -49 102 -196 327 -336 513 -226 301
-463 641 -606 870 l-40 65 -133 13 c-271 26 -630 103 -663 143 -14 17 -18 18
-18 5 0 -13 -24 -7 -132 30 -534 186 -1057 515 -1472 928 -207 207 -355 461
-433 744 -23 82 -27 116 -27 222 1 140 17 202 74 285 37 54 74 75 132 75 96 0
210 -81 503 -356 316 -295 394 -357 587 -458 281 -149 615 -240 807 -221 146
14 245 58 342 151 72 68 121 95 215 114 239 50 591 -119 914 -440 164 -163
235 -265 435 -630 221 -403 316 -520 425 -520 114 0 243 167 287 370 48 226 1
612 -104 857 -93 217 -309 564 -500 803 -134 169 -429 465 -593 596 -509 405
-1075 651 -1656 719 -155 18 -456 18 -606 0z"/>
<path d="M10105 24093 c-60 -8 -142 -36 -210 -71 -84 -44 -207 -162 -248 -239
l-28 -52 26 -7 c15 -4 90 -4 168 -1 109 3 158 10 212 27 154 49 245 112 335
231 72 96 75 91 -66 108 -88 11 -131 12 -189 4z"/>
<path d="M18945 24093 c-57 -5 -145 -23 -145 -30 0 -3 23 -37 51 -74 139 -187
319 -270 589 -268 171 1 170 0 122 75 -55 84 -96 129 -167 180 -139 98 -272
133 -450 117z"/>
<path d="M8983 23853 c-4 -15 -8 -91 -8 -168 0 -129 2 -146 28 -217 36 -97
100 -189 174 -251 58 -48 192 -121 247 -133 l29 -7 -7 79 c-14 164 -60 303
-141 430 -65 101 -194 225 -302 288 -8 4 -15 -3 -20 -21z"/>
<path d="M20170 23847 c-140 -98 -227 -197 -300 -339 -59 -113 -88 -217 -97
-342 l-6 -89 29 7 c16 4 67 26 114 49 65 31 103 60 161 117 133 131 187 280
176 479 -6 107 -14 151 -26 150 -3 0 -26 -14 -51 -32z"/>
<path d="M9935 23503 c-139 -29 -253 -98 -343 -207 -42 -51 -122 -193 -122
-217 0 -9 21 -10 91 -6 248 18 445 116 562 280 46 64 87 138 87 157 0 15 -193
11 -275 -7z"/>
<path d="M19015 23484 c26 -64 103 -170 166 -228 71 -66 192 -128 303 -156 76
-19 266 -39 266 -27 0 15 -43 103 -75 153 -84 131 -192 216 -329 260 -64 21
-109 27 -214 31 l-133 6 16 -39z"/>
<path d="M8820 23053 c2 -273 117 -471 339 -583 65 -32 218 -77 228 -66 9 9
-16 111 -48 200 -60 164 -174 319 -304 411 -67 48 -158 99 -192 110 -23 6 -23
5 -23 -72z"/>
<path d="M20303 23091 c-244 -130 -409 -351 -467 -628 -9 -43 -10 -63 -3 -63
36 0 154 38 226 72 67 32 101 56 160 117 119 119 164 229 177 439 6 84 5 102
-7 102 -8 0 -47 -18 -86 -39z"/>
<path d="M9938 22924 c-204 -37 -365 -148 -451 -311 -39 -76 -83 -201 -73
-211 12 -11 178 28 255 60 108 45 212 119 275 195 60 72 121 186 131 246 7 37
7 37 -26 36 -19 0 -69 -7 -111 -15z"/>
<path d="M19135 22914 c4 -16 26 -69 50 -119 94 -191 257 -316 494 -375 42
-11 88 -20 103 -20 l26 0 -13 48 c-78 287 -285 457 -596 488 l-70 7 6 -29z"/>
<path d="M8760 22317 c0 -38 31 -168 53 -229 87 -230 281 -370 549 -395 l68
-6 -19 56 c-28 80 -93 201 -150 278 -83 112 -215 209 -366 269 -97 38 -135 46
-135 27z"/>
<path d="M9960 22309 c-235 -59 -418 -223 -480 -429 -22 -72 -40 -190 -30
-190 18 0 152 51 205 77 163 83 291 222 345 376 17 47 43 177 37 183 -1 1 -36
-7 -77 -17z"/>
<path d="M19184 22276 c27 -213 163 -396 375 -505 77 -39 184 -81 209 -81 11
0 -12 132 -34 198 -70 210 -240 360 -479 421 l-77 19 6 -52z"/>
<path d="M20353 22301 c-185 -64 -333 -179 -435 -336 -51 -79 -101 -182 -123
-254 l-7 -24 71 7 c298 30 501 199 570 476 28 115 34 160 19 160 -7 0 -50 -13
-95 -29z"/>
<path d="M9993 21700 c-249 -100 -403 -299 -428 -551 -4 -37 -4 -81 0 -98 l6
-31 62 32 c280 140 450 385 435 626 l-3 51 -72 -29z"/>
<path d="M19144 21659 c10 -114 24 -167 68 -256 68 -140 198 -263 367 -348
l73 -36 -4 108 c-10 246 -132 430 -362 542 -56 27 -112 53 -125 56 l-23 7 6
-73z"/>
<path d="M8814 21534 c15 -109 91 -249 191 -349 117 -117 242 -165 437 -165
124 0 120 -7 55 102 -155 259 -350 394 -656 452 l-34 6 7 -46z"/>
<path d="M20370 21573 c-188 -31 -393 -135 -506 -255 -68 -72 -194 -262 -194
-293 0 -3 49 -5 108 -5 267 0 446 111 567 351 43 84 78 211 58 208 -5 -1 -19
-4 -33 -6z"/>
<path d="M10093 21100 c-159 -98 -251 -206 -300 -355 -23 -69 -27 -97 -27
-200 0 -66 5 -130 10 -143 10 -23 11 -23 90 36 162 121 267 265 310 425 15 56
20 287 6 287 -4 0 -44 -23 -89 -50z"/>
<path d="M19024 21094 c-9 -76 3 -195 27 -269 47 -139 170 -295 314 -397 l70
-49 8 33 c4 18 8 80 9 138 0 112 -19 194 -67 290 -50 99 -163 207 -287 274
l-66 37 -8 -57z"/>
<path d="M8950 20819 c0 -5 15 -43 34 -84 115 -248 312 -384 559 -385 95 0
217 19 217 34 0 19 -148 189 -207 239 -141 118 -317 184 -530 201 -49 4 -73 3
-73 -5z"/>
<path d="M20139 20819 c-167 -16 -351 -93 -475 -197 -73 -62 -218 -232 -206
-244 12 -12 134 -28 217 -28 198 0 366 91 491 266 34 48 104 189 104 210 0 5
-21 4 -131 -7z"/>
<path d="M26663 20660 c-17 -10 -37 -28 -42 -39 -8 -13 -11 -212 -11 -610 0
-687 -9 -631 106 -631 63 0 101 11 116 34 4 6 8 221 8 479 0 257 2 467 5 467
3 0 246 -205 540 -456 295 -250 556 -469 580 -486 55 -39 126 -48 174 -23 62
31 61 25 61 659 l0 575 -27 21 c-24 19 -38 21 -101 18 -59 -3 -77 -7 -88 -23
-12 -15 -14 -101 -14 -483 0 -309 -3 -463 -10 -460 -6 2 -256 212 -556 468
-318 271 -565 474 -592 487 -58 28 -107 29 -149 3z"/>
<path d="M30720 20658 c-41 -21 -68 -60 -382 -538 -461 -701 -433 -656 -420
-686 14 -30 68 -64 102 -64 42 0 64 23 180 190 l111 160 494 0 494 0 109 -157
c124 -180 154 -207 222 -200 33 4 51 13 72 36 56 63 67 44 -367 656 -218 307
-401 567 -406 577 -26 49 -137 62 -209 26z m264 -483 l177 -260 -175 -3 c-96
-1 -256 -1 -355 0 l-180 3 177 262 c97 144 177 261 178 260 1 -1 81 -119 178
-262z"/>
<path d="M35323 20660 c-17 -10 -37 -28 -42 -39 -8 -13 -11 -212 -11 -610 0
-687 -9 -631 106 -631 63 0 101 11 116 34 4 6 8 221 8 479 0 257 2 467 5 467
3 0 246 -205 540 -456 295 -250 556 -469 580 -486 55 -39 126 -48 174 -23 62
31 61 25 61 659 l0 575 -27 21 c-24 19 -38 21 -101 18 -59 -3 -77 -7 -88 -23
-12 -15 -14 -101 -14 -483 0 -309 -3 -463 -10 -460 -6 2 -256 212 -556 468
-318 271 -565 474 -592 487 -58 28 -107 29 -149 3z"/>
<path d="M21978 20660 c-181 -31 -320 -107 -369 -201 -18 -36 -19 -64 -19
-536 0 -274 4 -503 8 -509 15 -23 53 -34 116 -34 109 0 106 -8 106 290 l0 250
579 0 c570 0 579 0 605 21 22 18 26 28 26 74 0 46 -4 56 -26 74 -26 21 -35 21
-605 21 l-579 0 0 134 c0 131 0 134 27 160 45 45 203 76 396 76 80 0 90 2 112
25 19 18 25 35 25 70 0 35 -6 52 -25 70 -24 24 -27 25 -177 24 -84 -1 -174 -5
-200 -9z"/>
<path d="M23575 20660 c-137 -19 -247 -59 -313 -115 -17 -14 -45 -53 -61 -87
l-31 -61 0 -371 c0 -368 0 -371 24 -421 43 -93 131 -152 292 -197 75 -21 98
-22 459 -22 422 -1 463 4 596 65 81 38 138 94 165 165 17 45 19 79 19 414 0
336 -2 369 -19 415 -26 65 -94 137 -157 165 -111 47 -162 52 -549 56 -201 1
-392 -1 -425 -6z m783 -204 c30 -9 70 -32 90 -51 l37 -33 3 -334 c3 -300 2
-336 -14 -366 -22 -41 -96 -78 -184 -92 -83 -13 -593 -13 -685 0 -87 13 -153
45 -182 89 -23 33 -23 39 -23 348 0 343 3 362 57 401 28 20 110 47 168 55 17
3 176 4 355 3 278 -2 333 -5 378 -20z"/>
<path d="M24909 20651 l-24 -19 0 -484 c0 -539 1 -548 65 -621 104 -118 290
-153 769 -144 330 6 425 19 548 76 94 44 137 83 172 153 l31 61 0 479 c0 560
9 518 -109 518 -54 0 -74 -4 -95 -21 l-26 -20 0 -452 c0 -431 -1 -452 -20
-492 -28 -57 -93 -92 -198 -106 -49 -7 -201 -9 -394 -7 -341 5 -385 11 -448
64 -61 52 -60 40 -60 534 l0 451 -25 24 c-21 22 -33 25 -93 25 -54 0 -75 -4
-93 -19z"/>
<path d="M28360 20650 c-20 -20 -20 -28 -20 -625 0 -597 0 -605 21 -626 20
-20 26 -20 612 -17 579 4 594 4 665 26 106 32 182 74 228 124 75 81 75 83 72
518 -3 374 -4 386 -25 426 -41 77 -123 131 -258 171 -54 15 -124 18 -667 21
-601 3 -607 3 -628 -18z m1242 -198 c31 -13 69 -37 83 -53 l25 -31 0 -335 c0
-380 1 -373 -79 -417 -78 -42 -136 -46 -613 -46 l-448 0 0 456 0 455 488 -3
c482 -3 488 -3 544 -26z"/>
<path d="M31645 20645 c-19 -18 -25 -35 -25 -70 0 -35 6 -52 25 -70 l24 -25
276 0 275 0 0 -525 0 -526 25 -24 c21 -22 33 -25 95 -25 120 0 110 -50 110
570 l0 530 280 0 281 0 26 26 c22 22 25 32 20 77 -9 94 47 87 -719 87 l-669 0
-24 -25z"/>
<path d="M33220 20650 c-20 -20 -20 -33 -20 -622 0 -332 4 -608 8 -614 15 -23
53 -34 116 -34 116 0 106 -58 106 645 0 708 11 645 -115 645 -62 0 -79 -4 -95
-20z"/>
<path d="M33975 20660 c-137 -19 -247 -59 -313 -115 -17 -14 -45 -53 -61 -87
l-31 -61 0 -371 c0 -368 0 -371 24 -421 43 -93 131 -152 292 -197 75 -21 98
-22 459 -22 422 -1 463 4 596 65 81 38 138 94 165 165 17 45 19 79 19 414 0
336 -2 369 -19 415 -26 65 -94 137 -157 165 -111 47 -162 52 -549 56 -201 1
-392 -1 -425 -6z m783 -204 c30 -9 70 -32 90 -51 l37 -33 3 -334 c3 -300 2
-336 -14 -366 -22 -41 -96 -78 -184 -92 -83 -13 -593 -13 -685 0 -87 13 -153
45 -182 89 -23 33 -23 39 -23 348 0 343 3 362 57 401 28 20 110 47 168 55 17
3 176 4 355 3 278 -2 333 -5 378 -20z"/>
<path d="M10302 20546 c-74 -59 -145 -138 -187 -211 -84 -142 -98 -364 -35
-529 l11 -30 65 65 c124 121 208 265 240 407 19 84 15 219 -8 305 l-14 49 -72
-56z"/>
<path d="M18830 20563 c-21 -70 -24 -261 -5 -332 36 -140 107 -260 225 -382
83 -85 79 -86 110 42 51 212 -3 409 -155 568 -40 42 -94 91 -119 109 l-45 32
-11 -37z"/>
<path d="M9238 20103 c-21 -2 -38 -7 -38 -10 0 -25 104 -164 164 -220 179
-167 383 -210 626 -131 36 11 70 25 75 30 7 6 -12 30 -55 70 -193 179 -374
256 -615 263 -66 2 -137 1 -157 -2z"/>
<path d="M19740 20103 c-220 -34 -364 -105 -526 -255 l-76 -72 38 -17 c137
-58 317 -70 444 -29 87 28 198 99 263 169 50 53 127 166 127 186 0 20 -181 32
-270 18z"/>
<path d="M10588 20013 c-122 -128 -178 -252 -186 -409 -5 -122 13 -218 61
-319 l33 -68 47 63 c141 186 198 373 176 567 -9 81 -36 172 -62 207 -12 16
-18 12 -69 -41z"/>
<path d="M18537 20007 c-71 -178 -61 -357 32 -552 47 -97 132 -225 150 -225
12 0 56 94 78 167 12 40 18 92 18 168 0 129 -22 211 -82 314 -37 62 -147 191
-163 191 -4 0 -19 -28 -33 -63z"/>
<path d="M10960 19569 c-46 -62 -107 -192 -126 -269 -26 -103 -16 -253 25
-355 31 -80 98 -188 116 -188 19 0 104 188 126 278 28 116 30 265 5 350 -22
75 -67 172 -93 204 l-20 25 -33 -45z"/>
<path d="M18165 19518 c-86 -176 -97 -339 -34 -538 22 -70 98 -230 109 -230 4
0 20 19 37 43 163 227 161 501 -3 749 -25 37 -49 68 -54 68 -5 0 -30 -42 -55
-92z"/>
<path d="M9795 19444 c-77 -11 -203 -37 -215 -44 -17 -11 11 -51 88 -122 177
-163 369 -220 572 -169 82 21 185 64 224 93 18 14 15 18 -55 67 -96 68 -214
125 -314 151 -77 20 -239 33 -300 24z"/>
<path d="M19215 19440 c-141 -22 -295 -87 -413 -174 -37 -27 -60 -51 -56 -58
12 -20 168 -86 241 -102 40 -9 98 -16 131 -16 71 0 192 30 259 63 91 47 225
164 266 234 11 17 -151 52 -268 57 -55 3 -127 1 -160 -4z"/>
<path d="M17758 19153 c-64 -83 -83 -118 -114 -208 -25 -72 -28 -93 -28 -210
0 -135 13 -213 56 -328 l21 -58 39 38 c57 55 132 171 158 244 34 97 38 241 11
349 -18 74 -82 230 -94 230 -2 0 -24 -26 -49 -57z"/>
<path d="M11381 19163 c-54 -108 -74 -185 -79 -310 -4 -105 -1 -131 18 -195
26 -89 91 -196 158 -261 l49 -48 26 78 c92 282 58 548 -94 726 -22 26 -45 47
-50 47 -5 0 -17 -17 -28 -37z"/>
<path d="M10290 18865 c-67 -14 -143 -39 -219 -72 l-44 -19 56 -49 c126 -111
251 -164 406 -173 145 -7 255 26 388 116 99 67 99 66 -8 116 -145 69 -222 87
-379 92 -91 2 -156 -1 -200 -11z"/>
<path d="M18580 18865 c-87 -18 -159 -44 -253 -92 l-78 -39 58 -43 c76 -57
179 -108 256 -127 86 -23 238 -15 331 17 73 24 183 91 251 152 47 43 47 43
-65 86 -152 59 -348 77 -500 46z"/>
<path d="M11850 18803 c-30 -96 -38 -276 -16 -363 34 -134 116 -260 231 -353
l60 -48 13 48 c23 82 27 299 8 387 -27 120 -86 228 -176 319 -41 42 -81 77
-87 77 -7 0 -22 -30 -33 -67z"/>
<path d="M17253 18802 c-178 -180 -239 -418 -177 -695 l16 -67 60 47 c166 131
257 330 245 535 -7 103 -43 248 -63 248 -7 0 -44 -31 -81 -68z"/>
<path d="M11045 18409 c-82 -8 -179 -32 -250 -61 -60 -26 -205 -109 -205 -119
0 -12 97 -70 167 -99 191 -80 360 -75 535 17 66 34 189 137 208 173 9 16 1 21
-68 44 -125 41 -266 57 -387 45z"/>
<path d="M18002 18408 c-83 -7 -210 -35 -270 -61 l-33 -14 78 -74 c132 -126
268 -183 433 -182 80 0 110 5 193 33 54 18 128 52 164 75 l65 42 -29 22 c-53
43 -227 120 -313 140 -103 23 -178 28 -288 19z"/>
<path d="M11715 18046 c-164 -33 -317 -110 -449 -227 l-48 -43 53 -24 c136
-60 315 -79 443 -46 135 35 286 146 374 275 l32 47 -63 11 c-102 19 -264 22
-342 7z"/>
<path d="M17225 18050 c-34 -4 -76 -12 -94 -17 l-33 -8 44 -60 c57 -76 152
-164 220 -203 164 -93 378 -97 580 -10 26 11 48 24 48 28 0 23 -193 159 -285
201 -142 64 -327 91 -480 69z"/>
</g>
</svg>
